<?xml version="1.0" standalone="no"?>
<!DOCTYPE svg PUBLIC "-//W3C//DTD SVG 20010904//EN"
 "http://www.w3.org/TR/2001/REC-SVG-20010904/DTD/svg10.dtd">
<svg version="1.0" xmlns="http://www.w3.org/2000/svg"
 width="512.000000pt" height="512.000000pt" viewBox="0 0 512.000000 512.000000"
 preserveAspectRatio="xMidYMid meet">
<metadata>
Created by potrace 1.14, written by Peter Selinger 2001-2017
</metadata>
<g transform="translate(0.000000,512.000000) scale(0.100000,-0.100000)"
fill="#000000" stroke="none">
<path d="M5000 4073 c-72 -8 -2282 -213 -3325 -308 -786 -72 -811 -76 -900
-143 -97 -73 -165 -200 -165 -308 0 -108 231 -2522 246 -2569 40 -127 147
-231 274 -265 71 -20 152 -15 880 54 377 36 975 92 1330 126 355 33 740 69
855 80 372 35 748 70 815 76 117 9 110 3 110 93 l0 79 -37 -4 c-165 -20 -2398
-222 -2402 -218 -8 8 -278 2904 -270 2904 3 0 75 7 160 15 303 30 2519 235
2534 235 12 0 15 16 15 80 l0 80 -42 -2 c-24 0 -59 -3 -78 -5z m-3388 -843
c16 0 18 -3 9 -14 -7 -8 -9 -25 -5 -41 6 -25 5 -26 -13 -17 -15 9 -25 7 -43
-5 -22 -16 -23 -16 -18 10 4 20 0 28 -13 32 -25 8 -24 25 1 25 13 0 22 9 26
27 l7 27 15 -22 c8 -12 23 -22 34 -22z m208 -23 c21 6 28 -11 9 -23 -6 -3 -8
-17 -4 -31 5 -23 4 -25 -17 -20 -14 4 -29 0 -40 -10 -17 -15 -18 -15 -18 7 0
13 -7 32 -17 42 -15 17 -15 18 1 18 9 0 21 12 27 27 10 26 10 26 24 6 10 -14
22 -19 35 -16z m-434 -38 c3 -6 17 -8 31 -4 22 5 23 4 13 -16 -9 -17 -8 -25 7
-41 18 -21 18 -21 -7 -15 -19 5 -29 1 -42 -16 l-18 -22 0 23 c0 15 -7 26 -20
29 -24 6 -26 19 -5 27 8 3 15 15 15 26 0 21 15 27 26 9z m580 -64 c4 -8 18
-15 32 -15 23 0 24 -1 9 -18 -11 -12 -13 -22 -7 -32 16 -24 11 -30 -14 -21
-17 7 -27 5 -40 -7 -15 -15 -16 -14 -16 11 0 15 -7 30 -15 33 -22 9 -18 24 5
24 13 0 20 7 20 20 0 23 18 27 26 5z m-676 -115 c24 16 31 11 19 -11 -8 -15
-8 -24 0 -32 16 -16 13 -27 -6 -27 -9 0 -25 -7 -35 -17 -17 -15 -18 -15 -18 5
0 12 -9 23 -22 28 -20 6 -20 8 -5 19 9 7 17 23 17 35 0 21 1 22 18 7 12 -11
22 -13 32 -7z m791 -110 c25 0 25 -17 -1 -25 -11 -4 -20 -15 -20 -27 0 -17 -3
-18 -15 -8 -8 7 -24 10 -35 7 -17 -4 -19 -1 -14 19 4 14 1 31 -6 39 -10 13 -8
15 13 15 13 0 31 8 38 17 13 15 14 14 17 -10 2 -19 9 -27 23 -27z m-855 -91
c3 -6 17 -8 31 -4 21 5 24 3 18 -14 -3 -11 -1 -30 5 -42 11 -19 10 -20 -10
-14 -15 5 -26 1 -36 -12 -13 -17 -14 -17 -20 5 -4 13 -14 22 -25 22 -23 0 -25
15 -4 24 8 3 15 15 15 26 0 21 15 27 26 9z m807 -113 c21 -6 21 -7 5 -20 -10
-7 -18 -24 -18 -36 0 -22 -1 -22 -19 -6 -13 12 -27 15 -41 11 -20 -6 -21 -5
-10 15 9 16 9 25 1 33 -17 17 -13 29 8 22 11 -3 24 1 32 11 13 16 14 16 17 -3
2 -12 13 -24 25 -27z m-702 -45 c21 13 29 11 22 -6 -3 -9 3 -25 12 -35 17 -19
17 -20 -3 -20 -12 0 -23 -9 -28 -22 -6 -20 -8 -20 -19 -5 -7 9 -23 17 -35 17
-22 0 -22 1 -6 19 12 13 15 27 11 41 -6 19 -4 20 12 12 12 -7 25 -7 34 -1z
m570 -118 c23 -6 25 -19 4 -27 -8 -3 -15 -15 -15 -26 0 -21 -15 -27 -26 -9 -3
6 -17 8 -30 5 -26 -7 -31 3 -12 22 9 9 9 15 0 24 -18 18 -14 31 8 25 14 -4 24
2 32 16 l13 22 3 -24 c2 -13 12 -26 23 -28z m-406 -13 c10 16 25 12 25 -7 0
-9 7 -25 17 -35 15 -17 15 -18 -6 -18 -13 0 -25 -9 -30 -22 -8 -20 -10 -21
-16 -5 -4 9 -18 17 -31 17 -27 0 -31 12 -10 29 8 7 12 21 9 33 -5 18 -4 19 15
9 14 -7 23 -8 27 -1z m229 -54 c-4 -16 -1 -25 10 -29 22 -9 20 -27 -3 -27 -12
0 -23 -9 -27 -22 l-7 -23 -10 23 c-7 14 -19 22 -35 22 -24 0 -24 1 -8 19 10
11 14 25 10 36 -6 14 -3 16 14 11 12 -4 30 -3 39 3 24 14 24 14 17 -13z m207
-438 c19 -6 51 -24 71 -40 65 -50 75 -87 102 -358 42 -417 42 -402 16 -454
-26 -55 -99 -122 -142 -132 -72 -15 -434 -51 -442 -43 -5 5 -12 36 -14 70 -4
57 -3 63 22 83 l27 21 -33 334 -33 334 -32 13 c-29 12 -32 19 -38 69 -4 31 -4
59 -1 63 7 6 359 48 432 51 17 0 46 -4 65 -11z"/>
<path d="M1730 1871 c-43 -6 -45 -8 -48 -41 -4 -48 56 -652 65 -661 13 -12
173 9 199 26 14 9 24 25 24 39 0 69 -52 585 -61 608 -15 38 -59 45 -179 29z"/>
<path d="M4827 3380 c-373 -47 -377 -49 -377 -136 0 -74 23 -127 63 -145 27
-12 34 -22 44 -69 6 -30 55 -397 107 -814 53 -418 98 -762 101 -764 15 -16
249 10 272 30 15 12 16 0 -17 312 -11 104 -20 219 -20 256 l0 68 58 14 57 14
3 122 3 122 -73 0 c-40 0 -79 4 -85 8 -9 5 -26 129 -51 370 -21 199 -38 362
-37 363 0 0 54 8 120 18 l120 17 3 122 3 122 -38 -1 c-21 -1 -136 -14 -256
-29z"/>
<path d="M3631 3259 c-102 -12 -214 -44 -283 -81 -77 -41 -162 -132 -199 -213
-26 -59 -29 -74 -29 -172 0 -134 18 -209 67 -292 70 -118 210 -223 453 -339
268 -129 400 -247 400 -357 0 -68 -55 -134 -137 -165 -82 -31 -221 -46 -285
-31 -87 20 -136 55 -163 116 -27 59 -65 95 -103 95 -14 0 -55 -5 -90 -11 -77
-14 -112 -43 -112 -94 0 -36 37 -150 69 -214 74 -144 237 -210 491 -198 134 7
219 29 337 87 188 93 283 239 283 435 -1 181 -79 335 -232 453 -59 45 -249
157 -331 195 -82 37 -238 135 -280 175 -62 60 -91 115 -83 163 15 96 72 154
186 190 171 53 297 1 332 -138 14 -56 35 -67 112 -59 153 17 165 27 146 133
-16 92 -40 143 -96 203 -55 59 -123 94 -219 115 -77 16 -122 17 -234 4z"/>
<path d="M225 3050 c-121 -10 -221 -19 -222 -19 -2 -1 -3 -683 -3 -1516 l0
-1515 2560 0 2560 0 0 370 0 370 -22 0 c-12 0 -190 -16 -395 -35 -205 -19
-543 -51 -750 -70 -388 -36 -568 -53 -1873 -176 -415 -38 -791 -71 -835 -71
-214 -3 -397 126 -463 327 -16 47 -43 300 -128 1208 l-108 1147 -51 -1 c-27
-1 -149 -10 -270 -19z"/>
</g>
</svg>
